<svg width="16" height="16" viewBox="0 0 16 16" fill="none" xmlns="http://www.w3.org/2000/svg">
<path fill-rule="evenodd" clip-rule="evenodd" d="M8 0C3.58172 0 0 3.58172 0 8C0 12.4183 3.58172 16 8 16H14C15.1046 16 16 15.1046 16 14V8C16 3.58172 12.4183 0 8 0ZM5 4C4.44772 4 4 4.44772 4 5V6C4 6.55228 4.44772 7 5 7C5.55228 7 6 6.55228 6 6V5C6 4.44772 5.55228 4 5 4ZM11 4C10.4477 4 10 4.44772 10 5V6C10 6.55228 10.4477 7 11 7C11.5523 7 12 6.55228 12 6V5C12 4.44772 11.5523 4 11 4ZM8.97361 9.97687L9.62313 9.26096C9.91463 8.93966 9.68666 8.42499 9.25282 8.42499H6.74718C6.31335 8.42499 6.08537 8.93966 6.37687 9.26096L7.03069 9.98161C7.05926 10.0151 7.08838 10.0479 7.11737 10.08C7.2775 10.2573 7.375 10.4923 7.375 10.75C7.375 11.3023 6.92728 11.75 6.375 11.75C5.82272 11.75 5.375 11.3023 5.375 10.75C5.375 10.5174 5.2178 10.2501 4.98522 10.2501H4.59954C4.3546 10.2501 4.13571 10.42 4.12659 10.6647C4.12553 10.693 4.125 10.7214 4.125 10.75C4.125 11.9926 5.13236 13 6.375 13C7.01379 13 7.59041 12.7338 7.99997 12.3063C8.40953 12.7338 8.98618 13.0001 9.625 13.0001C10.8676 13.0001 11.875 11.9927 11.875 10.7501C11.875 10.7196 11.8744 10.6893 11.8732 10.6592C11.8635 10.4152 11.6453 10.2462 11.4012 10.2462H11.017C10.7831 10.2462 10.625 10.5161 10.625 10.7501C10.625 11.3023 10.1773 11.7501 9.625 11.7501C9.07272 11.7501 8.625 11.3023 8.625 10.7501C8.625 10.492 8.72277 10.2567 8.8833 10.0793C8.91351 10.0459 8.94388 10.0118 8.97361 9.97687ZM6.39055 8.50005L6.375 8.5L6.35945 8.50005H6.39055Z" fill="black"/>
</svg>
