<svg width="16" height="16" viewBox="0 0 16 16" fill="none" xmlns="http://www.w3.org/2000/svg">
<path fill-rule="evenodd" clip-rule="evenodd" d="M8 0C3.58172 0 0 3.58172 0 8C0 12.4183 3.58172 16 8 16H14C15.1046 16 16 15.1046 16 14V8C16 3.58172 12.4183 0 8 0ZM5 4.25C4.58579 4.25 4.25 4.58579 4.25 5V6C4.25 6.41421 4.58579 6.75 5 6.75C5.41421 6.75 5.75 6.41421 5.75 6V5C5.75 4.58579 5.41421 4.25 5 4.25ZM11 4.25C10.5858 4.25 10.25 4.58579 10.25 5V6C10.25 6.41421 10.5858 6.75 11 6.75C11.4142 6.75 11.75 6.41421 11.75 6V5C11.75 4.58579 11.4142 4.25 11 4.25ZM8.81677 9.76607L9.48585 9.12325C9.81057 8.81129 9.58974 8.2627 9.13945 8.2627H6.86056C6.41026 8.2627 6.18943 8.81129 6.51415 9.12325L7.18636 9.76908C7.19956 9.78395 7.21299 9.79855 7.22654 9.81288C7.39605 9.99205 7.5 10.2339 7.5 10.5C7.5 11.0523 7.05228 11.5 6.5 11.5C5.94772 11.5 5.5 11.0523 5.5 10.5C5.5 10.2674 5.3428 10.0001 5.11022 10.0001H4.89386C4.69912 10.0001 4.52421 10.1318 4.50748 10.3258C4.50253 10.3832 4.5 10.4413 4.5 10.5C4.5 11.6046 5.39543 12.5 6.5 12.5C7.09734 12.5 7.63352 12.2381 7.99999 11.8229C8.36646 12.2382 8.90266 12.5001 9.50003 12.5001C10.6046 12.5001 11.5 11.6046 11.5 10.5001C11.5 10.4414 11.4975 10.3832 11.4925 10.3258C11.4758 10.1318 11.3009 10.0001 11.1062 10.0001H10.8898C10.6572 10.0001 10.5 10.2675 10.5 10.5001C10.5 11.0523 10.0523 11.5001 9.50003 11.5001C8.94774 11.5001 8.50003 11.0523 8.50003 10.5001C8.50003 10.2328 8.60485 9.99006 8.77563 9.81067C8.78951 9.79609 8.80326 9.78122 8.81677 9.76607Z" fill="black"/>
</svg>
