<svg xmlns="http://www.w3.org/2000/svg" width="48" height="48" viewBox="0 0 48 48">
	<path d="M44,30.3636475c0,1.5-1.2272949,2.7272339-2.7272949,2.7272339H37.852356l3.0549927,5.2913818
	c0.75,1.2990112,0.3007812,2.9755249-0.99823,3.7255249c-1.2990723,0.75-2.9755249,0.3007812-3.7255249-0.99823l-9.40625-16.2921143
	c-1.6121826-2.7923584-1.0158081-6.3359985,1.4215698-8.4468384l6.5042725,11.2657471h6.569519
	C42.7727051,27.6363525,44,28.8636475,44,30.3636475z M29,5.8922119v-0.000061
	c-1.2990112-0.75-2.9755249-0.3007812-3.7255249,0.998291L24,9.0979004l-1.2744751-2.2074585
	c-0.75-1.2990723-2.4265137-1.748291-3.7255249-0.998291v0.000061c-1.2990112,0.75-1.74823,2.4264526-0.99823,3.7254639
	l2.8490601,4.9347534L13.296814,27.6363525h-6.569519c-1.5,0-2.7272949,1.2272949-2.7272949,2.7272949
	s1.2272949,2.7272339,2.7272949,2.7272339h21.8181763c0.9088745-2.7272339-0.9093018-5.4545288-3.149231-5.4545288h-5.8010864
	L29.99823,9.6176758C30.74823,8.3186646,30.2990112,6.6422119,29,5.8922119z M9.0979872,34.908947l-2.0053306,3.4733353
	c-0.749999,1.2990379-0.3007865,2.9755211,0.9982505,3.7255211l0.0000048,0.0000038
	c1.299036,0.7499962,2.9755201,0.3007851,3.7255201-0.9982529l2.7359982-4.7388878C14,34.908947,11.2725363,34,9.0979872,34.908947z
	" />
</svg>
