<svg xmlns="http://www.w3.org/2000/svg" width="48" height="48" viewBox="0 0 48 48">
	<path d="M24.2791309,14.6422195c-1.7380085,0-4.4283485-1.9760914-7.2615395-1.9046669
	c-3.7379074,0.0476179-7.1663065,2.1665602-9.0947809,5.5235348c-3.8807573,6.7377548-0.9999495,16.6896381,2.785574,22.165556
	c1.8570499,2.6665344,4.0474167,5.6663818,6.9520311,5.5711441c2.7855759-0.1190338,3.8331394-1.809433,7.2139225-1.809433
	c3.3569736,0,4.3093071,1.809433,7.2615414,1.7380066c2.9998512-0.0476189,4.9045143-2.7141457,6.7377586-5.4044914
	c2.1189384-3.0950775,2.9998474-6.0949287,3.0474625-6.2615852c-0.0714226-0.0238113-5.8330383-2.2379837-5.9044647-8.904314
	c-0.0476189-5.5711479,4.54739-8.2376823,4.7616653-8.3567238c-2.6189156-3.8331385-6.6425209-4.2616892-8.0472145-4.3569221
	C29.0646057,12.3566246,25.99333,14.6422243,24.2791309,14.6422195z M30.4692955,9.0234547
	c1.5475426-1.857048,2.5713005-4.4521561,2.2855988-7.0234551c-2.2141743,0.0952331-4.8807049,1.4761161-6.4758644,3.3331652
	c-1.4285011,1.6427736-2.6665306,4.2854991-2.3332157,6.8091807c2.4522591,0.1904659,4.9759388-1.2618408,6.5234814-3.1188927" />
</svg>
