<svg xmlns="http://www.w3.org/2000/svg" width="48" height="48" viewBox="0 0 48 48">
	<path d="M20.3799992,20.7800007c-1.1399994,0-2.039999,1.0000019-2.039999,2.2200012s0.9200001,2.2199993,2.039999,2.2199993
	c1.1400013,0,2.0400009-1,2.0400009-2.2199993C22.4399986,21.7800026,21.5200005,20.7800007,20.3799992,20.7800007z
	 M27.6799984,20.7800007c-1.1399994,0-2.039999,1.0000019-2.039999,2.2200012s0.920002,2.2199993,2.039999,2.2199993
	c1.1399994,0,2.0400009-1,2.0400009-2.2199993S28.8199978,20.7800007,27.6799984,20.7800007z M37.4000015,4H10.5999994
	C8.3399992,4,6.4999986,5.8400002,6.4999986,8.1199999v27.0400009c0,2.2799988,1.8400006,4.1200027,4.1000009,4.1200027h22.6800003
	l-1.0600014-3.7000008l2.5600014,2.3799973l2.420002,2.2400017L41.5,44V8.1199999C41.5,5.8399997,39.6600037,3.9999995,37.4000015,4
	z M29.6799984,30.1200027c0,0-0.7200012-0.8600006-1.3199997-1.6200008
	c2.6200008-0.7399998,3.6200008-2.3799992,3.6200008-2.3799992c-0.8200016,0.539999-1.6000004,0.920002-2.3000011,1.1799984
	c-1,0.420002-1.9599991,0.7000008-2.8999996,0.8600006c-1.9200001,0.3600006-3.6800003,0.2600021-5.1800003-0.0200005
	c-1.1399994-0.2200012-2.1200008-0.539999-2.9400005-0.8600006c-0.4599991-0.1799984-0.9599991-0.3999996-1.4599991-0.6799984
	c-0.0600014-0.039999-0.1200008-0.0600014-0.1800003-0.1000004c-0.0400009-0.0200024-0.0600014-0.039999-0.0800018-0.0600014
	c-0.3600006-0.1999989-0.5599995-0.3399982-0.5599995-0.3399982s0.960001,1.6000004,3.5,2.3600006
	c-0.6000004,0.7600002-1.3400002,1.6599998-1.3400002,1.6599998c-4.4200001-0.1399994-6.1000004-3.039999-6.1000004-3.039999
	c0-6.4400005,2.8800011-11.6600018,2.8800011-11.6600018c2.8800011-2.1600008,5.6199989-2.1000004,5.6199989-2.1000004
	l0.2000008,0.2399998c-3.6000004,1.039999-5.2599993,2.6199989-5.2599993,2.6199989s0.4399996-0.2399988,1.1800013-0.579999
	c2.1399994-0.9399996,3.8400002-1.2000008,4.5400009-1.2600012c0.1199989-0.0199995,0.2199993-0.039999,0.3399982-0.039999
	c1.2200012-0.1600008,2.6000004-0.2000008,4.0400009-0.04C27.8799992,14.4800014,29.9199982,15.0400019,32,16.1800003
	c0,0-1.579998-1.499999-4.9799976-2.539999l0.2799988-0.3199997c0,0,2.7399979-0.0600004,5.6200008,2.1000004
	c0,0,2.8799973,5.2199993,2.8799973,11.6600018C35.7999992,27.0800037,34.1000023,29.9800034,29.6799984,30.1200027z" />
</svg>
