<svg xmlns="http://www.w3.org/2000/svg" width="48" height="48" viewBox="0 0 48 48">
	<path d="M23.9987068,4C12.9553099,4,4,12.9542055,4,24.0011635c0,8.8354797,5.7300529,16.3316956,13.678215,18.9767036
	c1.0000343,0.1834297,1.3650455-0.434021,1.3650455-0.9640541c0-0.4747849-0.0173111-1.7325211-0.02701-3.4015656
	c-5.5633211,1.2086258-6.737195-2.6809845-6.737195-2.6809845c-0.9094248-2.3104362-2.2205715-2.9255562-2.2205715-2.9255562
	c-1.8158875-1.2409172,0.1373892-1.2157478,0.1373892-1.2157478c2.0070601,0.1414394,3.0634356,2.0610771,3.0634356,2.0610771
	c1.7840881,3.0563126,4.6809149,2.1737862,5.8205404,1.6618004c0.1817112-1.2924843,0.6983604-2.1737862,1.2697697-2.6737404
	c-4.4411278-0.5047379-9.1100092-2.220562-9.1100092-9.8846169c0-2.1833611,0.7792721-3.9686775,2.0586195-5.3667526
	c-0.2056532-0.5059681-0.891983-2.5394182,0.1960764-5.2929621c0,0,1.6792364-0.5377684,5.4998446,2.050271
	c1.5952549-0.4435978,3.3061676-0.6654577,5.0070114-0.673192c1.698391,0.0077343,3.4094257,0.2295942,5.0070133,0.673192
	c3.8182755-2.5880394,5.494442-2.050271,5.494442-2.050271c1.0911293,2.7535439,0.4046783,4.786994,0.1990242,5.2929621
	c1.2818031,1.3980751,2.0557938,3.1833916,2.0557938,5.3667526c0,7.6832066-4.6761246,9.3738632-9.1316185,9.8690262
	c0.7181301,0.6174507,1.3578033,1.8381081,1.3578033,3.7037239c0,2.6737366-0.0245552,4.8308258-0.0245552,5.4865837
	c0,0.5348206,0.3602295,1.1570587,1.3752365,0.9617195C38.2747269,40.3256149,44,32.8343086,44,24.0011635
	C44,12.9542055,35.0445671,4,23.9987068,4z" />
</svg>
