<svg xmlns="http://www.w3.org/2000/svg" width="48" height="48" viewBox="0 0 48 48">
	<path d="M9.2149391,6.2307415C7.47016,7.2667193,4.0326037,11.2158251,4,12.2514772v1.7142954
	c0,2.173027,2.0312018,4.082943,3.875422,4.082943c2.2144341,0,4.0594697-1.8352528,4.0596328-4.0134974
	c0,2.1782427,1.7817841,4.0134974,3.9963808,4.0134974c2.2147589,0,3.9393244-1.8352528,3.9393244-4.0134974
	c0,2.1782427,1.8945942,4.0134974,4.10919,4.0134974h0.040102c2.2147598,0,4.1093521-1.8352528,4.1093521-4.0134974
	c0,2.1782427,1.7247276,4.0134974,3.9391613,4.0134974c2.2145996,0,3.9963799-1.8352528,3.9963799-4.0134974
	c0,2.1782427,1.8453636,4.0134974,4.0596352,4.0134974C41.9687996,18.0487156,44,16.1391258,44,13.9657726v-1.7142954
	c-0.0326042-1.0358143-3.4701614-4.9850836-5.2146149-6.0207353c-5.4229469-0.1904054-9.1824627-0.2233348-14.7855473-0.2225199
	C18.3969173,6.0087113,10.7582283,6.096252,9.214613,6.2307415H9.2149391z M19.84272,17.0252914
	c-0.2117443,0.3691158-0.4740219,0.7068386-0.7792244,1.0033741c-0.8359547,0.8173714-1.9818077,1.3240299-3.2450314,1.3240299
	c-1.2155724,0.0011387-2.3831139-0.4744701-3.2518787-1.3246822c-0.3028879-0.2966919-0.5330687-0.613924-0.7438507-0.9833221
	l-0.0009775,0.0006504c-0.210619,0.3700504-0.5040512,0.6871204-0.8075905,0.9841385
	c-0.8690968,0.8495903-2.0365067,1.3247929-3.2518787,1.3237057c-0.1522584,0-0.3107119-0.0420589-0.4388437-0.0860729
	c-0.1780152,1.853838-0.2531667,3.625515-0.2797384,4.9172688l-0.0003262,0.0073357
	c-0.0032606,0.655983-0.0065207,1.1954098-0.0097809,1.9448013c0.0342336,3.8896046-0.385211,12.6068172,1.7149467,14.7487087
	c3.254488,0.7588501,9.2431097,1.1044464,15.2511301,1.1065636h0.0009766
	c6.0078583-0.0021172,11.996479-0.3477135,15.2509689-1.1065636c2.1001549-2.1420517,1.6807098-10.8592663,1.7149467-14.7488708
	c-0.0035858-0.7492294-0.0065193-1.2886543-0.0097809-1.9448013l-0.0004921-0.0073357
	c-0.0264091-1.2920799-0.1015587-3.0635929-0.2795715-4.9174309c-0.1281319,0.044014-0.2864265,0.0860729-0.4388466,0.0860729
	c-1.2153702,0.0010872-2.382782-0.4741173-3.2518768-1.3237057c-0.3035393-0.2970181-0.5969734-0.613924-0.8077545-0.9841385
	l-0.0009766-0.0006523c-0.2109489,0.3693981-0.4409637,0.6867943-0.7438507,0.9833241
	c-0.8687325,0.8501434-2.0362167,1.325695-3.2517166,1.3245182c-1.2630634,0-2.4090786-0.5069847-3.2450352-1.324192
	c-0.3052025-0.2965355-0.5674801-0.6342602-0.7792244-1.0033741c-0.2094765,0.3687077-0.4693241,0.7064152-0.7720509,1.0033741
	c-0.8689766,0.8500538-2.0365925,1.3255291-3.2522049,1.3243561c-0.044014,0-0.0880299-0.0019569-0.1320438-0.0032597h-0.0011406
	c-0.044014,0.0013046-0.0880299,0.0032597-0.132534,0.0032597c-1.2155876,0.0012169-2.3832035-0.4741993-3.2522049-1.324194
	c-0.3027229-0.2969589-0.5625744-0.6346684-0.7720528-1.0033741L19.84272,17.0252914z M16.5031376,21.3436317l-0.0003262,0.0016308
	h0.0024452c1.3225632,0.0027714,2.4974327,0,3.9531822,1.5887718c1.145689-0.1201439,2.3428917-0.1801357,3.5410728-0.1783428
	h0.0009766c1.1981831-0.0016308,2.3953838,0.0581989,3.541235,0.1783428
	c1.4557476-1.5889359,2.6306171-1.5861626,3.9531803-1.5887718h0.002285l-0.0003262-0.0016308
	c0.6248455,0,3.1243992,0,4.8660831,4.891674l1.8707886,6.7106285c1.3863029,4.99226-0.4438972,5.114357-2.726799,5.1187592
	c-3.3855515-0.1260147-5.2600937-2.5846481-5.2600937-5.0429573c-1.874052,0.3071251-4.0602837,0.4606895-6.2465153,0.4608498
	h-0.0009785c-2.1863937,0-4.3726254-0.1537247-6.2465153-0.4608498c0,2.4583092-1.8747044,4.9169426-5.2600946,5.0429573
	c-2.2829008-0.0044022-4.1129389-0.126339-2.726635-5.1187592l1.8712807-6.7104645
	c1.7416811-4.8916759,4.2412329-4.8916759,4.8660803-4.8916759L16.5031376,21.3436317z M23.9995117,25.1879177v0.0009766
	c-0.0032597,0.0032597-3.5640583,3.2733974-4.2042294,4.4365311l2.3318062-0.0934105v2.0334835
	c0,0.0952034,0.9357224,0.0564041,1.8724232,0.0130424h0.0009766c0.9363747,0.0433636,1.8722591,0.0821609,1.8722591-0.0130424
	v-2.0334835l2.3318081,0.0934105c-0.6403332-1.1631317-4.2042294-4.4365292-4.2042294-4.4365292v-0.0009785l-0.0004883,0.0003262
	L23.9995117,25.1879177z" />
</svg>
