<svg xmlns="http://www.w3.org/2000/svg" width="48" height="48" viewBox="0 0 48 48">
	<path d="M40.8536987,36.7123413c-0.0004883-0.0004883-0.0010376-0.0010376-0.0010376-0.0015259
	c-0.3113403-0.3513794-0.4595947-1.0028076-0.6190796-1.6967773c-0.1590576-0.6934814-0.3369751-1.4413452-0.9063721-1.9260864
	c-0.0010376-0.0010986-0.0026245-0.0020752-0.0036011-0.0031128c-0.112854-0.0985107-0.2287598-0.1815186-0.3451538-0.2508545
	c-0.1169434-0.0692139-0.2354736-0.1256714-0.3538818-0.1702881c0.7914429-2.347168,0.4811401-4.6845703-0.3180542-6.7963867
	c-0.9802246-2.5923462-2.6918945-4.850769-3.9993286-6.395752c-1.4634399-1.8460083-2.8945312-3.5982056-2.866272-6.1864624
	C31.484436,9.3349609,31.8753052,2.0097656,24.9240112,2c-0.2826538-0.0004883-0.5775757,0.0112915-0.8848267,0.0358887
	c-7.7678833,0.6253052-5.7073975,8.8322144-5.8228149,11.5800171c-0.1420898,2.0097046-0.5493774,3.5936279-1.9317017,5.5581665
	c-1.6234741,1.9307251-3.9100952,5.0560303-4.9929199,8.3095703c-0.5108643,1.5352173-0.7540283,3.1000977-0.5298462,4.5814819
	c-0.0703125,0.0631104-0.1369629,0.1292725-0.2011108,0.1970215c-0.4765015,0.5093384-0.8288574,1.1258545-1.2212524,1.5407715
	c-0.3667603,0.366333-0.888916,0.5053101-1.4634399,0.7109375c-0.5744629,0.2062378-1.204895,0.5098877-1.5875244,1.2443848
	c0,0,0,0.0005493-0.0004883,0.0005493c-0.0005493,0.0010376-0.0010376,0.0025635-0.0020752,0.00354
	c-0.1800537,0.3359985-0.2385254,0.6986084-0.2385254,1.0664062c0,0.3400879,0.050293,0.6848145,0.1010742,1.0166626
	c0.1056519,0.6903687,0.2128296,1.3433228,0.0707397,1.7855225c-0.4544067,1.2427979-0.5128784,2.1019897-0.1928101,2.725769
	c0.3210449,0.6247559,0.9801636,0.9002075,1.7254639,1.0561523c1.4906006,0.310791,3.5090332,0.2338867,5.0996094,1.0771484
	l0.1369629-0.2579956l-0.135437,0.2584839c1.7029419,0.8905029,3.4295044,1.2064819,4.8067627,0.8920288
	c0.9991455-0.2277222,1.8096313-0.8226929,2.2261353-1.737854c1.0771484-0.005127,2.2594604-0.4616089,4.1531982-0.5656738
	c1.2849121-0.1036987,2.8898926,0.4564209,4.7359619,0.3538208c0.0482178,0.2000732,0.117981,0.3929443,0.2133789,0.5760498
	c0.0010376,0.0014648,0.0020142,0.00354,0.0031128,0.005127c0.7155151,1.4310913,2.0450439,2.0855713,3.4622803,1.9737549
	c1.4187622-0.1118774,2.9273071-0.9484253,4.1470947-2.3994751l-0.2236328-0.1877441l0.2252197,0.1856689
	c1.1622925-1.4095459,3.0914917-1.9937744,4.3712158-2.7651978c0.6396484-0.3857422,1.1582642-0.8688965,1.1987305-1.5706177
	C42.2124634,38.5491943,41.8005981,37.7633667,40.8536987,36.7123413z M23.6899414,10.9168701
	c-0.0056152-0.5159912,0.0789795-0.9586792,0.2775269-1.40802c0.1984863-0.4498291,0.4441528-0.7730103,0.789856-1.0361328
	c0.3461914-0.2626343,0.6863403-0.3831787,1.0889282-0.3872681h0.0189819c0.3939209,0,0.730957,0.1159058,1.0771484,0.3667603
	c0.3513794,0.2554321,0.6047974,0.5744629,0.8088989,1.020752c0.2000732,0.4349365,0.2965088,0.8601685,0.3062744,1.3643799
	c0,0.0133667,0,0.0246582,0.00354,0.0379639c0.0041504,0.5175781-0.085144,0.9581909-0.2815552,1.40802
	c-0.1118164,0.2564697-0.2405396,0.4719238-0.3949585,0.6586304c-0.0523682-0.0251465-0.1066895-0.0492554-0.163147-0.0723267
	c-0.1954346-0.0836182-0.3682861-0.1523438-0.5231323-0.2108154c-0.1549683-0.0584717-0.2758789-0.0984497-0.4005737-0.1415405
	c0.090332-0.1092529,0.2683105-0.2379761,0.3345337-0.3995972c0.1005249-0.2436523,0.1497803-0.4816284,0.1589966-0.7652588
	c0-0.0112915,0.0036011-0.0210571,0.0036011-0.0343628c0.0056152-0.2718506-0.0302734-0.5042114-0.1098022-0.7422485
	c-0.0830688-0.2498169-0.1887817-0.4293213-0.3416138-0.5786133c-0.1533813-0.149231-0.3062134-0.2169189-0.4898071-0.2230835
	c-0.008728-0.0005493-0.0169678-0.0005493-0.0256958-0.0005493c-0.1723022,0.0005493-0.3220825,0.0600586-0.4770508,0.18927
	c-0.1625977,0.1359253-0.2831421,0.3098145-0.383606,0.5519409c-0.1000366,0.2421265-0.149292,0.4821777-0.1591187,0.767334
	c-0.0014648,0.0112915-0.0014648,0.0210571-0.0014648,0.0323486c-0.0036011,0.1569214,0.0066528,0.3005371,0.0307617,0.4400635
	c-0.3529053-0.1759033-0.8043823-0.3041992-1.1162109-0.3786011c-0.0179443-0.1348877-0.0282593-0.2738647-0.031311-0.4195557
	V10.9168701z M18.9647217,11.0322876c-0.0245972-0.4462891,0.0189819-0.8299561,0.1416016-1.2269287
	c0.1231079-0.3970337,0.2872314-0.6842651,0.5257568-0.9202271c0.2379761-0.2364502,0.4780273-0.3554688,0.767334-0.3703613
	c0.022583-0.0010376,0.0446167-0.0015259,0.0666504-0.0015259c0.262146,0.0004883,0.4960327,0.0877075,0.7381592,0.2810669
	c0.2626343,0.2098389,0.4611206,0.4780884,0.6273193,0.8561401c0.166687,0.3779907,0.2554321,0.7560425,0.2800293,1.2022705
	v0.0036011c0.0118408,0.1872559,0.0102539,0.3637085-0.0045776,0.5344849
	c-0.0518188,0.0148926-0.1021118,0.0307617-0.1518555,0.0477295c-0.2821045,0.0974121-0.5061035,0.2050171-0.7225342,0.3480835
	c0.0209961-0.1497803,0.0241089-0.3015747,0.0076904-0.4713745c-0.0015869-0.0092163-0.0015869-0.0169067-0.0015869-0.0261841
	c-0.022522-0.2251587-0.0702515-0.4139404-0.1497803-0.6047363c-0.0845947-0.1984863-0.1795044-0.338501-0.3041382-0.446228
	c-0.112854-0.0974731-0.2195435-0.1425781-0.3375244-0.1416016c-0.0117798,0-0.0241089,0.0005493-0.036377,0.0015869
	c-0.1323853,0.0112305-0.2421265,0.0758667-0.3462524,0.2025757c-0.1036377,0.1261597-0.171814,0.2831421-0.2210693,0.491394
	c-0.0492554,0.2077637-0.0620728,0.4118652-0.0415649,0.6463013c0,0.0092163,0.0020752,0.0169067,0.0020752,0.0261841
	c0.022522,0.2272339,0.0681763,0.4159546,0.149231,0.6067505c0.0831299,0.1964722,0.1795654,0.3364868,0.3041992,0.4442139
	c0.0209961,0.0179443,0.0415039,0.0343628,0.0620728,0.0487671c-0.1292725,0.0999756-0.2161255,0.1709595-0.3228149,0.2489014
	c-0.0682373,0.0497437-0.149292,0.1092529-0.2436523,0.1790161c-0.2056885-0.1928711-0.3662109-0.4349365-0.5067749-0.7545166
	c-0.1661987-0.3775024-0.2549438-0.7555542-0.2816162-1.2017822V11.0322876z M19.3078613,13.7379761
	c0.4104004-0.3077393,0.6955566-0.5170288,0.8858643-0.6560059c0.1887817-0.1384888,0.2667236-0.1907959,0.3272705-0.248291
	c0-0.0004883,0.0004883-0.0004883,0.0004883-0.0009766l0.0005493-0.0005493
	c0.3082275-0.2918701,0.8001709-0.8237915,1.5413208-1.0786743c0.2549438-0.0882568,0.5396118-0.1446533,0.8581543-0.1456909
	c0.6083374-0.0025635,1.340332,0.1969604,2.2261353,0.7662964c0.5442505,0.3539429,0.9674072,0.383728,1.9425049,0.8012085
	l0.0015259,0.0005493l0.0010376,0.0004883c0.468811,0.1923828,0.7442627,0.4437256,0.8791504,0.7078857
	c0.1343994,0.2641602,0.1380005,0.550354,0.0251465,0.8519287c-0.2251587,0.6027222-0.9443359,1.2372437-1.9526978,1.5521851
	l-0.0010986,0.0004883l-0.0009766,0.0005493c-0.4920044,0.1594849-0.9207153,0.5128784-1.427002,0.8016968
	c-0.505249,0.2893066-1.0776978,0.522644-1.8552856,0.4775391c-0.3313599-0.0194702-0.5960693-0.085144-0.8227539-0.1820679
	c-0.2267456-0.0969849-0.414978-0.2252197-0.5939941-0.3688354c-0.3580322-0.2877197-0.6698608-0.649353-1.1264038-0.9176636
	l-0.0015259-0.0004883l-0.0010376-0.0010376c-0.7355347-0.4159546-1.1376953-0.8970947-1.2633667-1.3141479
	C18.824707,14.3673706,18.9431763,14.0114136,19.3078613,13.7379761z M19.5961304,42.4197998v0.0036011
	c-0.1046143,1.371582-0.8781128,2.1184082-2.0661011,2.3897095c-1.1868896,0.2713623-2.7969971,0.0010986-4.404541-0.8396606
	c-0.0005493,0-0.0010376-0.0004883-0.0015259-0.0004883c-1.7788696-0.9422607-3.8947144-0.8483887-5.2525024-1.1320801
	c-0.6785889-0.1415405-1.1217651-0.3549194-1.3248901-0.7509155c-0.203125-0.3964844-0.2077026-1.0874023,0.2241821-2.265625
	l0.0020142-0.005188l0.0015259-0.005127c0.2139282-0.6591187,0.0554199-1.3803101-0.0481567-2.057373
	c-0.1036377-0.6765137-0.1544189-1.2925415,0.0769043-1.7214355l0.0020752-0.0040894
	c0.2959595-0.5703735,0.7299194-0.7745361,1.2684937-0.9674072c0.5390625-0.1933594,1.1776733-0.3451538,1.6818848-0.8509521
	l0.0031128-0.0025635l0.0025635-0.0025635c0.4662476-0.4918823,0.8165894-1.1089478,1.2263794-1.5465088
	c0.3457642-0.3693237,0.6919556-0.6139526,1.213623-0.6175537c0.0061646,0.0005493,0.0117798,0.0005493,0.0179443,0
	c0.0913086,0.0005493,0.1882324,0.0081787,0.2908325,0.0241699c0.6924438,0.1046143,1.2962036,0.5888062,1.8778687,1.3776855
	l1.6793213,3.0606689l0.0005493,0.0015259l0.0010376,0.0010376c0.4467163,0.9330444,1.390564,1.9594116,2.1901855,3.0063477
	c0.7996826,1.0463867,1.4182739,2.0974121,1.3377686,2.9016724L19.5961304,42.4197998z M19.4556274,40.1947021
	c-0.2200317-0.3482666-0.4729614-0.6934814-0.7329712-1.0340576c-0.1661987-0.2174072-0.3370361-0.4334106-0.5062866-0.6467896
	c0.333374,0.0005493,0.6170654-0.0543823,0.8463135-0.157959c0.2852173-0.1297607,0.4852905-0.3369751,0.5847778-0.6037598
	c0.197998-0.532959-0.0010376-1.2849121-0.6355591-2.144104c-0.6344604-0.8586426-1.7090454-1.8275757-3.2879028-2.7959595
	c0,0,0,0,0-0.0005493c-1.1602173-0.7216797-1.8085938-1.6060181-2.1122437-2.5662231
	c-0.3041992-0.9606934-0.2615967-1.9993896-0.0272217-3.0247803c0.4493408-1.9681396,1.6034546-3.8823853,2.3400269-5.0836792
	c0.197998-0.1456909,0.0708008,0.270813-0.7457886,1.7870483c-0.7314453,1.3860474-2.0994263,4.5846558-0.2267456,7.081665
	c0.050293-1.7768555,0.4744873-3.5890503,1.1869507-5.2843018c1.0376587-2.3518066,3.2078857-6.4312134,3.380249-9.6821899
	c0.0892334,0.0646362,0.3944702,0.270813,0.5303955,0.3482666c0.0004883,0.0005493,0.0004883,0.0005493,0.0009766,0.0005493
	c0.3980713,0.234375,0.6970825,0.5770264,1.0843506,0.8883667c0.3883057,0.3118896,0.8730469,0.5811768,1.6055298,0.6237793
	c0.0702515,0.0040894,0.1389771,0.0061035,0.2061768,0.0061035c0.7550049,0,1.3438721-0.2461548,1.8342285-0.5267334
	c0.53302-0.3046875,0.9586792-0.6422119,1.3624268-0.7734985c0.0004883-0.0005493,0.0010376-0.0005493,0.0015259-0.0005493
	c0.8530273-0.2667236,1.5306396-0.7386475,1.9162598-1.2885132c0.6627197,2.6118774,2.2036133,6.3845215,3.1941528,8.2254639
	c0.5267334,0.9766235,1.5740967,3.0519409,2.0265503,5.5524902c0.2867432-0.008728,0.6027222,0.0328369,0.9407349,0.1195068
	c1.1833496-3.0678711-1.0032959-6.3717041-2.00354-7.2919312c-0.4036255-0.3918457-0.4231567-0.5672607-0.2225952-0.559082
	c1.0843506,0.9597168,2.508728,2.888855,3.0268555,5.0667725c0.2363892,0.992981,0.2867432,2.0373535,0.0332642,3.0678711
	c0.1235962,0.0512695,0.2498169,0.1071777,0.3775024,0.1677856c1.8994141,0.9247437,2.6016235,1.7290649,2.2640991,2.8267212
	c-0.1112671-0.0040894-0.2210693-0.00354-0.3277588-0.0010376c-0.0097046,0.0005493-0.0194702,0.0005493-0.0297241,0.0005493
	c0.2754517-0.8699341-0.3339233-1.5116577-1.9578857-2.2461548c-1.68396-0.7406616-3.0258179-0.6673584-3.2525024,0.8355713
	c-0.0144043,0.0784912-0.0261841,0.1589966-0.0349121,0.2400513c-0.1261597,0.0441284-0.2523193,0.0994873-0.3795776,0.1687622
	c-0.7904053,0.4329224-1.22229,1.2177124-1.4623413,2.1810303c-0.239563,0.9622803-0.3087769,2.1251221-0.3744507,3.4325562
	c0,0.0005493,0,0.0005493,0,0.0010376c-0.0405273,0.6571045-0.3113403,1.5465088-0.5852661,2.4882812
	C26.5351562,41.5611572,22.706604,42.4136963,19.4556274,40.1947021z M40.6716309,40.3203125
	c-1.1572266,0.6981201-3.2084961,1.3054199-4.5179443,2.8919678c-1.1377563,1.3536377-2.5247192,2.0968628-3.7459717,2.1932983
	s-2.2748413-0.4103394-2.8965454-1.6572876l-0.0010376-0.0025635l-0.0015259-0.0031128
	c-0.3857422-0.7335205-0.2252197-1.8901978,0.0994873-3.1109009c0.324646-1.2202759,0.7914429-2.473877,0.8540039-3.4920654
	v-0.0031128c0.0656128-1.3048706,0.1390381-2.4447021,0.3579712-3.3243408
	c0.2195435-0.8796997,0.5647583-1.4747314,1.1762085-1.8096313c0.0287476-0.0153809,0.0568848-0.0302734,0.085144-0.0441284
	c0.0692749,1.1300049,0.6289062,2.2831421,1.6177979,2.5323486C34.7815552,34.776001,36.3413696,33.8475952,37,33.0899658
	c0.1317749-0.005188,0.2600098-0.0117798,0.3847046-0.0148926c0.578064-0.013855,1.0622559,0.0195312,1.5577393,0.4524536
	l0.0015259,0.0014648l0.0015259,0.0010986c0.3806152,0.3226318,0.5616455,0.9319458,0.7186279,1.6141968
	c0.1569824,0.6827393,0.2821045,1.4259644,0.7530518,1.9558105l0.0004883,0.0004883l0.0005493,0.0010986
	c0.9048462,1.0037842,1.1956787,1.6818848,1.1705322,2.1153564C41.5641479,39.6499023,41.2507324,39.9715576,40.6716309,40.3203125z
	 M25.4133511,15.3727407c-0.802269,0.4181814-1.7393627,0.9253359-2.7365074,0.9253359
	c-0.9966316,0-1.783987-0.4606171-2.3502674-0.9094353c-0.2831402-0.2241516-0.5129356-0.447279-0.6863079-0.6093664
	c-0.3008022-0.2374392-0.2647705-0.5704699-0.1411839-0.5606375c0.2071552,0.0258608,0.2384777,0.2986145,0.368927,0.4206066
	c0.1764507,0.1651649,0.3975239,0.3790588,0.6652775,0.5914145c0.5355034,0.4241962,1.2495079,0.8371096,2.1435547,0.8371096
	c0.8925056,0,1.9343662-0.5239716,2.5703182-0.8807096c0.3602943-0.2021084,0.818758-0.5643873,1.1929111-0.8390293
	c0.2862549-0.2101221,0.275816-0.4631395,0.5121689-0.4355917c0.2363529,0.0275469,0.0615101,0.2800541-0.2694855,0.568923
	C26.3517628,14.7702284,25.8339424,15.1535082,25.4133511,15.3727407z M23.4229889,12.45823
	c0.0331802,0.1064968,0.2048168,0.0888462,0.3039818,0.139924c0.0870152,0.0448189,0.1570015,0.1430531,0.2548409,0.1458778
	c0.0933762,0.0026979,0.238699-0.0323372,0.250845-0.124959c0.0160484-0.1223679-0.1626415-0.2001295-0.2776279-0.2449589
	c-0.1479664-0.0576906-0.3375397-0.0869598-0.4763412-0.0097837c-0.031805,0.0176849-0.0665207,0.0591555-0.0556965,0.0938997
	H23.4229889z M22.4092064,12.45823c-0.0331783,0.1064968-0.2048149,0.0888462-0.3039799,0.139924
	c-0.0870152,0.0448189-0.1570015,0.1430531-0.2548409,0.1458778c-0.0933762,0.0026979-0.238699-0.0323372-0.2508469-0.124959
	c-0.0160465-0.1223679,0.1626434-0.2001295,0.2776279-0.2449589c0.1479664-0.0576906,0.3375416-0.0869598,0.4763412-0.0097837
	C22.3853149,12.3820152,22.4200306,12.4234858,22.4092064,12.45823L22.4092064,12.45823z" />
</svg>
