<svg xmlns="http://www.w3.org/2000/svg" width="48" height="48" viewBox="0 0 48 48">
	<path d="M22.0332031,25.9399414c-0.0092773,0.2871094,0.09375,0.5566406,0.2900391,0.7592773
	C22.5107422,26.8930664,22.7626953,27,23.0327148,27H28v1c0,2.3125,0.0662231,4.6096191,0.1889038,6.8920288
	c2.5267944-0.7341919,4.8361816-2.1149902,6.6809692-4.055481c0.3650513-0.3839722,0.9556274-0.4389038,1.3617554-0.0987549
	l0.0283203,0.0237427c0.4246826,0.3556519,0.4833374,1.0039062,0.1032104,1.4067993
	c-2.2012329,2.3329468-4.9938354,3.9533691-8.045166,4.7540283C28.4838257,39.2994995,28.7093506,41.6603394,29.0047607,44H36
	c4.4000244,0,8-3.6000366,8-8V12c0-4.4000244-3.5999756-8-8-8h-9.2620239
	C23.8817749,10.9302368,22.2767944,18.3477783,22.0332031,25.9399414z M32.5,15.5c0-0.8250122,0.6749878-1.5,1.5-1.5
	s1.5,0.6749878,1.5,1.5v3c0,0.8250122-0.6749878,1.5-1.5,1.5s-1.5-0.6749878-1.5-1.5V15.5z M26.3435669,37.3186035
	C25.571167,37.4257202,24.7914429,37.5,24,37.5c-4.7039795,0-9.1547241-1.9312744-12.3631592-5.331665
	c-0.380127-0.4028931-0.3214722-1.0511475,0.1032104-1.4067993l0.0283203-0.0237427
	c0.4061279-0.3401489,0.9967041-0.2852173,1.3617554,0.0987549C15.9581909,33.8112793,19.8685913,35.5,24,35.5
	c0.746521,0,1.4814453-0.0738525,2.2084351-0.1817627C26.0907593,33.2246704,26.0201416,31.1187134,26.0039062,29h-2.9711914
	c-0.8164062,0-1.5786133-0.3227539-2.1464844-0.909668c-0.5761719-0.5947266-0.8789062-1.3813477-0.8520508-2.2148438
	C20.2768555,18.319397,21.8303833,10.9318848,24.5848389,4H12c-4.4000244,0-8,3.5999756-8,8v24c0,4.3999634,3.5999756,8,8,8
	h14.9973145C26.7225342,41.7894897,26.5045776,39.5619507,26.3435669,37.3186035z M12.5,15.5c0-0.8284302,0.6715698-1.5,1.5-1.5
	s1.5,0.6715698,1.5,1.5v3c0,0.8284302-0.6715698,1.5-1.5,1.5s-1.5-0.6715698-1.5-1.5V15.5z" />
</svg>
