<svg xmlns="http://www.w3.org/2000/svg" width="48" height="48" viewBox="0 0 48 48">
	<path d="M24,4C12.9540682,4,4,12.9540682,4,24s8.9540682,20,20,20s20-8.9540672,20-20S35.0459328,4,24,4z
	 M34.3818474,31.0724964c0,0.343111-0.2766991,0.6198139-0.619812,0.6198139H31.149971
	c-0.343111,0-0.619812-0.2767029-0.619812-0.6198139v-8.0464859c0-0.0664082-0.0774765-0.0996113-0.1328163-0.0553398
	l-5.5340347,5.5340347c-0.4759274,0.4759274-1.2617588,0.4759274-1.7376862,0l-5.5340347-5.5340347
	c-0.0442715-0.0442715-0.1328163-0.0110683-0.1328163,0.0553398v8.0464859c0,0.343111-0.276701,0.6198139-0.619812,0.6198139
	h-2.6120634c-0.3431101,0-0.619812-0.2767029-0.619812-0.6198139V16.9275055c0-0.343111,0.2767019-0.619812,0.619812-0.619812
	h1.7930269c0.3209743,0,0.6419487,0.1328163,0.8743763,0.3652458l6.8843403,6.8843403
	c0.1217499,0.121748,0.309906,0.121748,0.431654,0l6.8843384-6.8843384
	c0.2324295-0.2324295,0.5423355-0.3652477,0.8743763-0.3652477h1.7930279c0.3431129,0,0.619812,0.2767029,0.619812,0.619812
	V31.0724964z" />
</svg>
