<svg xmlns="http://www.w3.org/2000/svg" width="48" height="48" viewBox="0 0 48 48">
	<path d="M4,14C4,8.47715,8.47715,4,14,4h20c5.5228767,0,10,4.47715,10,10v20c0,5.5228767-4.4771233,10-10,10H14
	C8.47715,44,4,39.5228767,4,34V14z M37.75,22.3771248c0.0065002-3.0438747-1.2915001-5.8371258-3.5267487-7.788475
	C31.9902496,12.630125,28.862999,11.5,25.2286263,11.5C15.7559252,11.5,9.3125,18.8371258,9.3125,18.8371258l1.8156748,2.892498
	c0,0,1.0044127,0.0845013,0.4725752-1.6192493c0.4591751-0.8703747,1.3581123-2.0427494,3.1131248-3.39575v19.2650013
	c-0.7566128,0.2143745-1.7566242,0.6171227-1.0748625,1.3016243h5.2156134
	c0.6883736-0.6912498-0.3961258-1.1073761-1.0568752-1.3016243v-4.5446262c0,0,3.5761242,1.4089985,7.4308758,1.4089985
	c3.3871231,0,6.4688759-1.0113735,8.7611237-2.8382492C36.2817497,28.1893749,37.7589989,25.4772511,37.75,22.3771248z
	 M33.9441223,22.328125c-0.0092468,2.5076256-0.8997459,4.572876-2.4848728,6.1567497
	c-1.5848751,1.5707493-3.8899994,2.564249-6.5488739,2.5621262c-2.9663754,0.0016251-5.463625-0.5748749-7.1123753-1.3897495
	V15.2035751c1.809-1.2901382,4.743-2.0849628,7.1123753-2.0801373c2.8784981,0.0021992,5.1391239,1.0937376,6.6673756,2.7507372
	C33.1036263,17.5408745,33.9366264,19.7548752,33.9441223,22.328125z" />
</svg>
