<svg xmlns="http://www.w3.org/2000/svg" width="48" height="48" viewBox="0 0 48 48">
	<path d="M38.7892914,13.9671268c-0.0078087-0.1500912-0.1449089-0.2689819-0.3123741-0.2663622l-3.1861267-0.459034
	c-0.030056-0.0064125-0.060421-0.0104313-0.0911026-0.0121469c-0.6394882,0-2.152729-0.0043344-4.4338665-0.0069084
	c-0.2698498-2.0763998-1.058569-5.5358157-2.5457726-7.5453877c-0.8277721-1.1193185-1.7900333-1.68329-2.8581486-1.6772394
	c-0.6829071,0.0004063-1.2957802,0.207798-1.8386192,0.6221294c-0.5744133-0.3375249-1.1739826-0.4746118-1.7943745-0.4121189
	c-3.0021763,0.3054204-3.9401455,4.7219176-4.1362381,9.021286c-2.633666,0.0118752-5.2670803,0.0439796-7.9002542,0.0963125
	c-0.1917572,0.0034771-0.3462067,0.1397066-0.356617,0.3132324C9.2629137,14.8469496,8.9835186,19.579298,8.590457,26.8522263
	C8.1739693,34.5433731,7.936223,38.7394714,7.8789568,39.848362c-0.0095448,0.1596642,0.1145353,0.2976074,0.2880726,0.3228035
	l12.6855211,1.923645l12.539753,1.9002075c0.1032982,0.015625,0.1984558-0.0055084,0.2854691-0.0633507v0.0017624
	l6.1961174-3.9609871c0.1715775-0.1121178,0.2540054-0.270607,0.2472878-0.4754677l-1.3318901-25.5298481H38.7892914z
	 M25.3688431,5.2070103c0.5579147-0.0034766,1.0759258,0.2637887,1.5791817,0.812995
	c1.5219173,1.6607585,2.3089027,5.2087212,2.6030464,7.2000513l-1.903698-0.0008583
	c-0.4286327-2.6525173-1.4950142-6.0347204-3.1427517-7.7935529c0.2629128-0.1370873,0.550108-0.2169189,0.8642159-0.2186351
	H25.3688431z M23.6048412,6.2247782c1.4360161,1.4872317,2.4104252,4.5588217,2.8251743,6.9935627
	c-1.2147579-0.0017614-2.5397129-0.0017614-3.9713879-0.0017614H21.778368
	C21.9154606,10.9892311,22.3926849,7.8274231,23.6048412,6.2247782L23.6048412,6.2247782z M18.1662064,30.0609035
	L14.7301798,31.29216c-0.6073751,0.2169189-0.6984816,0.5249577-0.2082405,0.684576
	c0.4989157,0.1683331,1.3839512,0.1215115,1.9930658-0.1023636l1.6512012-0.5952168v1.7310181
	c-0.1058578,0.0181961-0.2238674,0.0355797-0.3323269,0.0546341c-1.646862,0.2733154-3.4013138,0.1605225-5.1340761-0.412117
	c-1.6121531-0.4512253-1.8828697-1.4004478-1.1462078-1.947937c0.6793966-0.5032864,1.8351517-0.8789654,1.8351517-0.8789654
	l4.7774591-1.7032928V30.0609035z M21.8495178,5.4100223c0.2689819-0.0277247,0.5310211,0.0130491,0.7913284,0.1197476
	c-1.5036907,2.0503459-1.9366722,5.666853-2.0598793,7.6894283c-0.6186581,0.0008583-1.2147579,0.0034771-1.787426,0.0051928
	C19.0174026,8.4070177,20.1020031,5.5887861,21.8495178,5.4100223L21.8495178,5.4100223z M22.1471329,22.6569843v12.3505688
	l-3.3353729-1.0568275V19.2191963c1.419529,0.2611694,3.4820099,0.8876781,4.5943813,1.257309
	c2.8191013,0.9700394,3.7770233,2.1778603,3.7770233,4.8884907c0,2.6499424-1.6338482,3.6564217-3.7102184,2.6508007v-4.9327869
	c0-0.5752602-0.1067219-1.1115074-0.6498871-1.2633591c-0.4164886-0.1336098-0.6759262,0.2533588-0.6759262,0.8364754V22.6569843z
	 M31.443491,31.304306c-0.4043465,0.501524-1.383091,0.8642006-1.383091,0.8642006l-7.2789898,2.6152191v-1.9297409
	l5.3570728-1.90802c0.6073761-0.2230148,0.6984806-0.5292931,0.2082386-0.6898155
	c-0.4989166-0.1631413-1.3865547-0.1154137-2.0000038,0.104126l-3.5653076,1.2581215v-2.0069542l0.204771-0.0694008
	c0,0,1.0325394-0.3644371,2.4824409-0.5214825c1.4490318-0.1596642,3.2277832,0.0199585,4.6238823,0.5466328
	c1.5713768,0.4998074,1.7475109,1.2286358,1.3509808,1.737114H31.443491z" />
</svg>
