<svg xmlns="http://www.w3.org/2000/svg" width="48" height="48" viewBox="0 0 48 48">
	<path d="M5.3025508,35.5912628c-3.4698992-0.9935265-4.0484347-3.0592918-2.4672356-4.2495918
	c1.4626007-1.1022511,3.9505334-1.9280262,3.9505334-1.9280262l10.2740154-3.7083054v4.2265816l-7.3931637,2.6867657
	c-1.3078651,0.4769173-1.5076094,1.1496086-0.4451542,1.5021286c1.0617981,0.3528557,2.9830217,0.2521362,4.292201-0.2244492
	l3.5461168-1.3063622v3.7813454c-0.2243824,0.0420189-0.4743919,0.0827065-0.7069874,0.1210594
	C12.8054438,37.082058,9.0267296,36.8362617,5.3025508,35.5912628L5.3025508,35.5912628z M26.9780865,36.0311661
	l11.5280018-4.1685524c1.3091774-0.4769192,1.5089226-1.1492767,0.4464684-1.5021324
	c-1.0624542-0.3528538-2.9843369-0.2524662-4.2928619,0.2247887l-7.6816082,2.7467957v-4.3709927l0.44384-0.15275
	c0,0,2.2191963-0.7970886,5.3402004-1.1469421c3.1210022-0.3491859,6.9434128,0.0470257,9.9428596,1.2006378
	c3.3821831,1.0849113,3.762619,2.683094,2.9028664,3.7843475c-0.8594284,1.1005859-2.9652863,1.8850021-2.9652863,1.8850021
	l-15.6644802,5.7120361V36.0311661z M28.3260307,9.0134611c6.0698624,2.1141243,8.1267662,4.7471924,8.1267662,10.6783476
	c0,5.780407-3.515892,7.9719067-7.9838562,5.7830753V14.702487c0-1.2630053-0.2279987-2.4266243-1.3975544-2.7574663
	c-0.8962193-0.2918224-1.4520855,0.553627-1.4520855,1.8166323v26.9716797l-7.1671391-2.3092308V6.2666669
	C21.5002308,6.8403053,25.9392834,8.1970272,28.3260307,9.0134611L28.3260307,9.0134611z" />
</svg>
