<svg xmlns="http://www.w3.org/2000/svg" width="48" height="48" viewBox="0 0 48 48">
	<path d="M24.0475407,4c-10.5489254,0-19.14081,8.1145582-19.9522667,18.3770885l10.7398567,4.4391403
	c0.9069214-0.6205254,2.0047741-1.0023861,3.1980915-1.0023861c0.0954647,0,0.1909294,0,0.3341293,0l4.7732697-6.9212418
	c0-0.0477333,0-0.0477333,0-0.0954647c0-4.1527452,3.389019-7.5417671,7.5417652-7.5417671s7.5417652,3.3890219,7.5417652,7.5417671
	s-3.389019,7.5417652-7.5417652,7.5417652c-0.0477333,0-0.0954666,0-0.1909313,0l-6.8257751,4.9164658
	c0,0.0954666,0,0.1909332,0,0.286396c0,3.1026268-2.5298328,5.680191-5.680191,5.680191
	c-2.7207632,0-5.0119333-1.9570389-5.536993-4.5346069l-7.6849637-3.245821C7.150167,37.8424797,14.8351307,44,23.9998093,44
	c11.0262527,0,20-8.9737473,20-20C44.0475388,12.9737463,35.0737953,4,24.0475407,4z M16.6489735,34.3579941l-2.4343681-1.002388
	c0.429594,0.9069252,1.1933174,1.6706467,2.1957035,2.1002426c2.1479721,0.9069214,4.6778049-0.1431999,5.5369949-2.291172
	c0.429594-1.0501175,0.429594-2.1957016,0-3.245821c-0.4295959-1.0501213-1.2410507-1.8615761-2.2911701-2.2911701
	s-2.1479702-0.429594-3.1503582-0.0477314l2.5298347,1.0501194c1.5751781,0.6682587,2.3389015,2.4821014,1.6706429,4.105011
	C20.0379944,34.2625313,18.2241516,35.0262527,16.6489735,34.3579941z M35.6465836,18.8448677
	c0-2.7684956-2.2434349-5.0119324-5.0119305-5.0119324s-5.0119343,2.2434368-5.0119343,5.0119324
	s2.2434368,5.0119324,5.0119343,5.0119324S35.6465836,21.6133652,35.6465836,18.8448677z M26.8637695,18.8448677
	c0-2.1002369,1.6706448-3.7708817,3.7708836-3.7708817s3.7708836,1.6706448,3.7708836,3.7708817
	s-1.6706429,3.7708836-3.7708836,3.7708836S26.8637695,20.9451065,26.8637695,18.8448677z" />
</svg>
