<svg xmlns="http://www.w3.org/2000/svg" width="48" height="48" viewBox="0 0 48 48">
	<path d="M5.7497916,21.6960354c10.7373962-4.6781139,17.8973408-7.7622108,21.4798374-9.2522964
	C37.4583817,8.1892471,39.583828,7.4501982,40.9691658,7.4255328c0.3046913-0.0051064,0.9859581,0.0704041,1.4272575,0.4284863
	c0.3726196,0.3023586,0.4751472,0.7108011,0.5242081,0.997468c0.049057,0.2866678,0.1101494,0.9397049,0.0615883,1.4499683
	c-0.5543022,5.8240767-2.9527435,19.9575691-4.1729393,26.4806328c-0.5163116,2.7601509-1.5329399,3.6856194-2.5171547,3.7761879
	c-2.1389275,0.1968269-3.763134-1.4135551-5.8347874-2.7715492c-3.2417297-2.1249924-5.073103-3.4478111-8.2197647-5.5214195
	c-3.6365108-2.3964043-1.2791138-3.7135105,0.7933254-5.8660355c0.5423679-0.5633221,9.966526-9.1353245,10.1489334-9.912941
	c0.0228119-0.0972538,0.0439835-0.4597702-0.1713791-0.6511917c-0.2153664-0.1914206-0.533226-0.1259623-0.7626038-0.0739012
	c-0.3251305,0.0737934-5.5038376,3.496726-15.5361214,10.2688017c-1.4699583,1.0093842-2.801404,1.501194-3.9943304,1.47542
	c-1.3151073-0.0284119-3.8448448-0.7435799-5.7254457-1.3548889c-2.3066325-0.749794-4.1398978-1.1462173-3.9802618-2.4196014
	C3.0928395,23.0677109,4.0062065,22.3894024,5.7497916,21.6960354z" />
</svg>
