<svg xmlns="http://www.w3.org/2000/svg" width="48" height="48" viewBox="0 0 48 48">
	<path d="M39.9049339,15.840148c0.0243759,0.3526297,0.0243759,0.7052603,0.0243759,1.061141
		c0,10.8437958-8.2551308,23.3499928-23.3499908,23.3499928v-0.0065002C12.1202517,40.2512779,7.7538085,38.9740067,4,36.5657196
		c0.648385,0.0780029,1.3000202,0.1170044,1.9532804,0.1186295c3.6953077,0.0032501,7.2849894-1.2366447,10.1921606-3.5198059
		c-3.5116806-0.0666275-6.5911036-2.356287-7.6668701-5.6989651c1.2301435,0.2372532,2.4976635,0.1885033,3.7050571-0.1413784
		c-3.8285599-0.77351-6.5829782-4.1373119-6.5829782-8.0438728c0-0.0357513,0-0.0698757,0-0.104002
		c1.1407681,0.6353855,2.4180374,0.9880161,3.7245579,1.0270157c-3.6059308-2.4099121-4.7174482-7.2069864-2.5399146-10.9575453
		c4.1665654,5.126955,10.3140354,8.2437525,16.9132633,8.5736322c-0.6613846-2.8502941,0.2421284-5.8370895,2.3741627-7.8407459
		c3.3053017-3.107049,8.5037575-2.9477963,11.6108055,0.3558798c1.8379021-0.36238,3.5994301-1.0367661,5.2114563-1.992281
		c-0.6126328,1.8996544-1.8947792,3.5133057-3.6075554,4.5386963C40.9140778,12.6892233,42.5033493,12.2537165,44,11.5890808
		C42.8982315,13.2401075,41.5104599,14.6782551,39.9049339,15.840148z" />
</svg>
