<svg xmlns="http://www.w3.org/2000/svg" width="48" height="48" viewBox="0 0 48 48">
	<path d="M34.1199951,23.3975906c-0.5650139-0.1706963-0.9518356-0.2857189-0.6557159-1.0269356
	c0.640419-1.6112976,0.7061119-3.0000477,0.0119286-3.9926453c-1.3021011-1.8589306-4.8631077-1.7588215-8.9450016-0.0492516
	c0-0.0030594-1.2816048,0.5611897-0.9544353-0.4567204c0.6281071-2.0176229,0.5335808-3.7080746-0.4436455-4.6838474
	c-2.2151623-2.2173796-8.1044416,0.083972-13.1542397,5.1315441C6.1957345,22.1029091,4,26.1127625,4,29.5780964
	c0,6.630537,8.5028706,10.6620197,16.8212204,10.6620197c10.9047318,0,18.1589012-6.3362541,18.1589012-11.3669872
	C38.9801216,25.834919,36.4198914,24.1096706,34.1199951,23.3975906z M20.8443928,37.8621521
	c-6.6379919,0.6557312-12.3681612-2.343605-12.7994623-6.7037296c-0.4305592-4.355608,4.6021004-8.419529,11.2385626-9.0753212
	c6.6394444-0.6568623,12.3685818,2.3428783,12.7994537,6.6988678
	C32.5127487,33.1420708,27.4823837,37.2064209,20.8443928,37.8621521z M41.2654877,11.2639475
	c2.6341057,2.9160757,3.3443489,6.8926611,2.2207451,10.3792562c-0.0011482,0.0029831-0.0011482,0.0052776-0.0011482,0.0074959
	c-0.2613983,0.8047695-1.1269684,1.2468834-1.9328079,0.9851017c-0.8085175-0.2606335-1.250248-1.1243668-0.9888496-1.9328842
	H40.562664c0.8010216-2.4806137,0.2927551-5.3082066-1.5769615-7.3821917
	c-1.871933-2.0739851-4.6326828-2.865983-7.1835804-2.3249063c-0.8286304,0.1758976-1.6452541-0.3532486-1.8219166-1.1811905
	c-0.1773491-0.828248,0.3510303-1.6441841,1.180809-1.822299h0.0006886
	C34.7477188,7.2313046,38.6320724,8.3433599,41.2654877,11.2639475 M37.2216797,14.912981
	c1.2842064,1.4216347,1.6273575,3.357502,1.0787888,5.0580502c-0.2240791,0.6945648-0.9694252,1.073204-1.6636086,0.851038
	c-0.6945686-0.225914-1.0750427-0.9708786-0.8506584-1.6639919h-0.0011444
	c0.2685089-0.8323784,0.1004906-1.7800827-0.5268517-2.4742661c-0.6269608-0.6934958-1.5527191-0.9578772-2.4067383-0.7770853
	v-0.0019121c-0.7124634,0.1553249-1.4149055-0.3005552-1.5672474-1.0127106
	c-0.1531086-0.7151384,0.302084-1.4171228,1.016077-1.5694656C34.0468063,12.9502697,35.9400749,13.4902754,37.2216797,14.912981
	 M21.4104767,25.4376202c-3.1583557-0.8245773-6.728694,0.7513123-8.0999298,3.5355415
	c-1.3976974,2.8350105-0.0462694,5.986742,3.1449718,7.0173893c3.3048096,1.0664978,7.2014751-0.5661087,8.5558872-3.6296768
	C26.3479214,29.3630428,24.6798763,26.2800179,21.4104767,25.4376202z M19.0000687,32.6850052
	c-0.6426392,1.0246735-2.0180054,1.4727821-3.0538883,0.9992828c-1.0202055-0.463047-1.321908-1.653492-0.6795759-2.651289
	c0.6347609-0.9977989,1.9630938-1.4384594,2.9910994-1.008276C19.2973347,30.4683685,19.6292458,31.6498642,19.0000687,32.6850052z
	 M21.1140518,29.9694309c-0.2319565,0.3988285-0.7450409,0.587038-1.147541,0.4227657
	c-0.3954639-0.1613674-0.5190506-0.6064644-0.2939014-0.9963455c0.230732-0.3883514,0.7240849-0.5780144,1.118784-0.4211597
	C21.1916752,29.121069,21.3358345,29.569149,21.1140518,29.9694309z" />
</svg>
