<svg xmlns="http://www.w3.org/2000/svg" width="48" height="48" viewBox="0 0 48 48">
	<path d="M24,20.0444431c0.0222244,0,0.0555553,0.0222225,0.0666637,0.0333347
	c5.9777775,4.544445,16.2222233,15.7999992,13.1000042,18.9777794C33.6444435,42.1333351,29.0333328,44,24,44
	c-5.0444469,0-9.6444435-1.8666649-13.166667-4.9444427c-3.1222224-3.1777802,7.12222-14.4333344,13.1000032-18.9777794
	C23.9444447,20.0555553,23.9777756,20.0444431,24,20.0444431z M34.4111137,6.9222221C31.3555565,5.1111112,28.0333328,4,24,4
	s-7.3555565,1.1111112-10.4222212,2.9222221c-0.0333319,0.0222225-0.0555553,0.0666666-0.0333319,0.0999999
	c0.0111122,0.0333333,0.0555553,0.0444446,0.0999994,0.0333333c3.8777781-0.8333335,9.7555571,2.5111113,10.3111124,2.8444443
	c0.0111084,0.0111113,0.0222244,0.0111113,0.0444489,0.0111113c0.0222225,0,0.0333309-0.0111113,0.0444469-0.0111113
	c0.5555553-0.333333,6.4444447-3.6777773,10.3111095-2.8444443c0.044445,0.0111113,0.0777779,0,0.1000023-0.0333333
	C34.4666672,6.9888887,34.4555511,6.9444447,34.4111137,6.9222221z M10,9.7333336
	C9.9666681,9.7555552,9.9333324,9.7777777,9.9111128,9.7999992C6.2555542,13.4333334,4,18.4444447,4,24
	c0,4.5555553,1.5222235,8.7555542,4.0888872,12.1222229c0.0222235,0.0333328,0.0666676,0.0555573,0.1111116,0.0333328
	c0.0333319-0.0222244,0.0333319-0.0666695,0.0222235-0.0999985c-1.5333357-4.7222233,6.2666655-16.1555557,10.2888861-20.9444466
	c0.0111084-0.0111103,0.0222244-0.0333328,0.0222244-0.0555553c0-0.0333338-0.0111084-0.0444441-0.0333328-0.0666666
	C12.3999977,8.9222221,10.333333,9.5666666,10,9.7333336z M29.488884,14.9888887
	C29.4666615,15,29.4555531,15.0222225,29.4555531,15.0555553c0,0.0222225,0.0111084,0.044445,0.0222225,0.0555553
	C33.5,19.9000015,41.3000031,31.333334,39.7777786,36.044445c-0.0111084,0.033329-0.0111084,0.0777779,0.0222244,0.0999985
	c0.033329,0.0222244,0.0777779,0,0.1111107-0.0333328C42.4777756,32.7444458,44,28.5555553,44,23.9888878
	c0-5.5555553-2.2666702-10.5666656-5.9111137-14.1888885C38.0666656,9.7777777,38.0333328,9.7444439,38,9.7333336
	C37.6555519,9.5666666,35.5888863,8.9222221,29.488884,14.9888887z" />
</svg>
