<svg xmlns="http://www.w3.org/2000/svg" width="48" height="48" viewBox="0 0 48 48">
	<path d="M32.8361626,11.410203l-0.4729843,3.651886l4.461731,1.3172102l0.0577507,3.9392509l4.089119,0.078373l-0.1003723,4.1317463
	l3.9750023-0.2584915C44.8532829,22.8814697,44.9399071,15.0249662,46,11.4088287L32.8361626,11.410203z M22.818224,35.436203
	c0.1003723-0.3863602,0-1.6540718,0-2.0981865l-0.0866222-2.6784153c-3.7096329-0.1581192-7.7052584,0.5871067-7.7052584,4.0025005
	c0,0.745224,0.3148651,1.4107056,0.7809753,1.9263115h6.073184c0.4578609-0.2584915,0.7947254-0.6159782,0.9377213-1.1535873
	V35.436203z M39.3823318,25.9545002l0.0934982-4.1179962l-4.0396233-0.078373l-0.0646248-4.4397354l-4.633604-1.5825758
	l0.6228542-4.3256149H14.0734978C7.0694671,11.4102049,2,17.3761425,2,23.9071884v12.6826057h7.5485144
	c-0.0494986-0.4578629-0.0646229-0.9239731-0.0426245-1.3818321c0.2722416-6.7249146,7.6983852-7.8771286,13.2765865-7.7121315
	v-1.9331894c-0.0934982-1.5605774-1.361208-2.9437828-5.026844-2.9437828c-2.4419241,0-5.3417082,0.3148651-7.2185249,0.9954681
	l0.4936104-4.3751125c1.7970686-0.5018597,3.8168802-0.99547,8.1644955-0.99547
	c8.3858624,0,9.3098335,3.7165089,9.2452106,8.0352497l-0.0426235,10.3121777h4.5469818v-0.0068741l0.1718674,0.0068741
	c6.0580635,0,11.0422821-4.9347229,11.6651344-10.8497868L39.3823318,25.9545002z" />
</svg>
